<svg height="371pt" viewBox="-51 0 371 371.20001" width="371pt" xmlns="http://www.w3.org/2000/svg"><path d="m204.761719 0h63.964843v76.757812h-63.964843zm0 0" fill="#e9686a"/><g fill="#f6bf9b"><path d="m76.832031 38.378906h102.34375v153.519532h-102.34375zm0 0"/><path d="m.0742188 307.035156h38.3789062v63.964844h-38.3789062zm0 0"/><path d="m217.554688 115.136719h38.378906v102.347656h-38.378906zm0 0"/></g><path d="m76.832031 38.378906h102.34375v38.378906h-102.34375zm0 0" fill="#5a6470"/><path d="m96.019531 95.949219h12.792969v12.792969h-12.792969zm0 0" fill="#5a6470"/><path d="m147.191406 95.949219h12.792969v12.792969h-12.792969zm0 0" fill="#5a6470"/><path d="m38.453125 217.484375h179.101563v153.515625h-179.101563zm0 0" fill="#f4f4e6"/><path d="m19.261719 217.484375h19.191406v89.550781h-38.3789062v-70.363281c0-10.597656 8.5898432-19.1875 19.1875002-19.1875zm0 0" fill="#5a6470"/><path d="m236.746094 307.035156h-19.191406v-89.550781h38.378906v70.359375c0 10.597656-8.589844 19.191406-19.1875 19.191406zm0 0" fill="#5a6470"/><path d="m255.933594 83.15625c0 10.597656-8.589844 19.1875-19.1875 19.1875s-19.191406-8.589844-19.191406-19.1875 8.59375-19.191406 19.191406-19.191406 19.1875 8.59375 19.1875 19.191406zm0 0" fill="#f6bf9b"/><path d="m128.003906 255.863281h-38.378906v-38.378906zm0 0" fill="#aabece"/><path d="m128.003906 255.863281h38.378906v-38.378906zm0 0" fill="#aabece"/><path d="m64.039062 217.484375h25.585938v153.515625h-25.585938zm0 0" fill="#5a6470"/><path d="m166.382812 217.484375h25.585938v153.515625h-25.585938zm0 0" fill="#5a6470"/><path d="m115.210938 255.863281h25.585937v115.136719h-25.585937zm0 0" fill="#5a6470"/><path d="m128.003906 255.863281-38.378906-38.378906h76.757812zm0 0" fill="#f6bf9b"/><path d="m134.398438 147.121094h-31.980469c-10.597657 0-19.191407 8.589844-19.191407 19.1875 0 10.601562 8.59375 19.191406 19.191407 19.191406 10.597656 0 19.1875-8.589844 19.1875-19.191406-.019531-2.183594-.417969-4.347656-1.175781-6.394532h13.96875zm0 0" fill="#e9686a"/><path d="m44.847656 70.363281h31.984375v12.792969h-31.984375zm0 0" fill="#5a6470"/><path d="m121.605469 121.535156h12.792969v12.792969h-12.792969zm0 0" fill="#5a6470"/></svg>