<?xml version="1.0" encoding="UTF-8" standalone="no"?>
<!-- Created with Inkscape (http://www.inkscape.org/) -->

<svg
   xmlns:dc="http://purl.org/dc/elements/1.1/"
   xmlns:cc="http://creativecommons.org/ns#"
   xmlns:rdf="http://www.w3.org/1999/02/22-rdf-syntax-ns#"
   xmlns:svg="http://www.w3.org/2000/svg"
   xmlns="http://www.w3.org/2000/svg"
   xmlns:xlink="http://www.w3.org/1999/xlink"
   xmlns:sodipodi="http://sodipodi.sourceforge.net/DTD/sodipodi-0.dtd"
   xmlns:inkscape="http://www.inkscape.org/namespaces/inkscape"
   width="100"
   height="43"
   viewBox="0 0 26.458333 11.377083"
   version="1.1"
   id="svg8"
   inkscape:version="0.92.4 (5da689c313, 2019-01-14)"
   sodipodi:docname="UEFA_Champions_League_logo_2.svg">
  <title
     id="title934">UEFA Champions League logo</title>
  <defs
     id="defs2">
    <rect
       height="113.6"
       width="118.2"
       id="SVGID_1_"
       x="0"
       y="0" />
    <clipPath
       id="SVGID_2_">
      <use
         id="use15"
         style="overflow:visible"
         xlink:href="#SVGID_1_"
         x="0"
         y="0"
         width="100%"
         height="100%" />
    </clipPath>
    <rect
       height="113.6"
       width="118.2"
       id="rect43"
       x="0"
       y="0" />
    <clipPath
       id="SVGID_2_-7">
      <use
         id="use15-8"
         style="overflow:visible"
         xlink:href="#SVGID_1_"
         x="0"
         y="0"
         width="100%"
         height="100%" />
    </clipPath>
  </defs>
  <sodipodi:namedview
     id="base"
     pagecolor="#ffffff"
     bordercolor="#666666"
     borderopacity="1.0"
     inkscape:pageopacity="1"
     inkscape:pageshadow="2"
     inkscape:zoom="1"
     inkscape:cx="42.576914"
     inkscape:cy="32.298348"
     inkscape:document-units="px"
     inkscape:current-layer="layer1"
     showgrid="false"
     units="px"
     fit-margin-top="0.5"
     fit-margin-left="0.5"
     fit-margin-right="0.5"
     fit-margin-bottom="0.5"
     inkscape:window-width="1366"
     inkscape:window-height="705"
     inkscape:window-x="-8"
     inkscape:window-y="-8"
     inkscape:window-maximized="1"
     inkscape:showpageshadow="false"
     inkscape:pagecheckerboard="false" />
  <metadata
     id="metadata5">
    <rdf:RDF>
      <cc:Work
         rdf:about="">
        <dc:format>image/svg+xml</dc:format>
        <dc:type
           rdf:resource="http://purl.org/dc/dcmitype/StillImage" />
        <dc:title>UEFA Champions League logo</dc:title>
        <cc:license
           rdf:resource="http://scripts.sil.org/OFL" />
      </cc:Work>
      <cc:License
         rdf:about="http://scripts.sil.org/OFL">
        <cc:permits
           rdf:resource="http://scripts.sil.org/pub/OFL/Reproduction" />
        <cc:permits
           rdf:resource="http://scripts.sil.org/pub/OFL/Distribution" />
        <cc:permits
           rdf:resource="http://scripts.sil.org/pub/OFL/Embedding" />
        <cc:permits
           rdf:resource="http://scripts.sil.org/pub/OFL/DerivativeWorks" />
        <cc:requires
           rdf:resource="http://scripts.sil.org/pub/OFL/Notice" />
        <cc:requires
           rdf:resource="http://scripts.sil.org/pub/OFL/Attribution" />
        <cc:requires
           rdf:resource="http://scripts.sil.org/pub/OFL/ShareAlike" />
        <cc:requires
           rdf:resource="http://scripts.sil.org/pub/OFL/DerivativeRenaming" />
        <cc:requires
           rdf:resource="http://scripts.sil.org/pub/OFL/BundlingWhenSelling" />
      </cc:License>
    </rdf:RDF>
  </metadata>
  <g
     inkscape:label="Layer 1"
     inkscape:groupmode="layer"
     id="layer1"
     transform="translate(141.24403,-338.56918)">
    <g
       id="g56"
       transform="matrix(0.26458333,0,0,0.26458333,-143.08215,375.66888)">
      <g
         id="g20">
        <defs
           id="defs13">
          <rect
             height="113.6"
             width="118.2"
             id="rect899"
             x="0"
             y="0" />
        </defs>
        <clipPath
           id="clipPath866">
          <use
             id="use864"
             style="overflow:visible"
             xlink:href="#SVGID_1_"
             x="0"
             y="0"
             width="100%"
             height="100%" />
        </clipPath>
      </g>
      <g
         id="g22" />
      <g
         id="g24" />
      <g
         id="g26" />
      <g
         id="g28" />
      <g
         id="g30" />
      <g
         id="g32" />
    </g>
    <path
       id="path18"
       clip-path="url(#SVGID_2_)"
       d="m 58.5,62.3 c 8.1,0 15.5,3.3 20.7,8.7 L 80,70.2 c -5.5,-5.6 -13.1,-9.1 -21.6,-9.1 -8.5,0 -16,3.5 -21.4,9.1 l 0.8,0.8 c 5.3,-5.4 12.6,-8.7 20.7,-8.7 m 0,12.3 c 5,0 9.4,2.2 12.5,5.7 l 0.9,-0.8 c -3.3,-3.7 -8,-6.1 -13.4,-6.1 -5.4,0 -10.1,2.3 -13.4,6.1 l 0.9,0.8 c 3.1,-3.5 7.5,-5.7 12.5,-5.7 m 16.3,-5.2 c -0.3,-0.3 -0.6,-0.2 -0.8,0 l -6.6,4.3 1.4,0.8 4.7,-3.1 -0.7,2.6 -0.6,-0.5 -1.3,0.8 1.5,1.1 -0.4,1.5 1.2,1.1 2.2,-7.5 C 75.5,70.2 75.5,70 75.2,69.7 Z M 46,74.6 c 0.4,-0.3 0.7,-0.8 0.7,-1.2 0.1,-0.5 -0.1,-0.9 -0.6,-1.5 l -2.6,-3.2 1.2,-0.9 2.9,3.5 c 0.6,0.7 0.8,1.5 0.8,2.3 -0.1,0.9 -0.5,1.6 -1.3,2.3 -0.8,0.6 -1.6,0.9 -2.5,0.8 -0.8,-0.1 -1.5,-0.5 -2.1,-1.2 l -2.9,-3.5 1.2,-0.9 2.6,3.2 c 0.5,0.6 0.8,0.9 1.4,0.9 0.3,-0.1 0.8,-0.3 1.2,-0.6 m 6.3,-8.3 0.3,1.7 3.4,-0.7 0.3,1.4 -3.4,0.7 0.1,0.6 c 0.2,0.8 0.5,0.9 1.2,0.8 l 2.7,-0.6 0.3,1.4 -2.8,0.6 c -1.3,0.3 -2.5,-0.1 -2.8,-1.7 l -1,-4.8 C 50.5,65.3 50.7,65.1 51,65 l 4.6,-0.9 0.3,1.4 z m 10,5.8 -0.9,-0.2 C 61.1,71.8 60.9,71.6 61,71.2 l 1.2,-4.7 c 0.4,-1.6 1.6,-1.9 2.9,-1.6 l 2.8,0.7 -0.3,1.4 -2.7,-0.7 c -0.7,-0.2 -1,-0.1 -1.2,0.7 l -0.2,0.7 3.4,0.9 -0.4,1.4 -3.4,-0.9 z m 19.4,29.4 v 0 7.3 c 0,0.4 -0.2,0.6 -0.6,0.6 v 0.4 h 7.4 c 0,-0.8 0,-1.5 0.2,-2.7 h -0.5 c -0.2,1.2 -0.5,1.4 -1.2,1.4 h -3.2 v -3 h 1.9 c 0.6,0 0.7,0.2 0.8,0.7 h 0.4 c 0,-0.3 -0.1,-1 -0.1,-1.3 0,-0.4 0,-1 0.1,-1.3 h -0.4 c -0.1,0.5 -0.2,0.7 -0.8,0.7 h -1.9 v -2.7 h 3 c 0.8,0 1,0.3 1.1,1 h 0.4 c -0.1,-0.8 -0.1,-1.4 -0.1,-2.2 h -7.1 v 0.4 c 0.4,0.2 0.6,0.4 0.6,0.7 m -11.3,0 v 0 5.2 c 0,2.4 1.3,3.2 3.9,3.2 2.5,0 3.9,-0.8 3.9,-3.4 v -5 c 0,-0.4 0.2,-0.6 0.6,-0.6 v -0.4 c -0.5,0 -1,0.1 -1.6,0.1 -0.7,0 -1.3,0 -1.9,-0.1 v 0.4 c 0.6,0 0.8,0.1 0.8,0.7 v 5.2 c 0,1.6 -0.7,1.9 -1.8,1.9 -1.1,0 -1.8,-0.3 -1.8,-1.9 v -5.2 c 0,-0.5 0.2,-0.7 0.8,-0.7 v -0.4 c -0.6,0 -1.1,0.1 -1.9,0.1 -0.6,0 -1.2,0 -1.6,-0.1 v 0.4 c 0.4,0 0.6,0.2 0.6,0.6 m -5.6,5 v 0 1 c 0,0.6 -0.5,1.1 -1.5,1.1 -1.6,0 -2.6,-2 -2.6,-3.7 0,-1.8 1,-3.3 2.9,-3.3 1.2,0 2.3,0.6 2.5,1.9 h 0.4 c -0.1,-1 -0.1,-1.8 -0.1,-2.4 -0.8,-0.5 -1.8,-0.7 -2.8,-0.7 -3,0 -5.1,1.8 -5.1,4.9 0,2.5 1.7,4.7 4.3,4.7 1,0 1.9,-0.3 2.8,-1.1 l 0.3,0.9 h 0.8 v -3.1 c 0,-0.6 0.3,-0.8 0.7,-0.8 v -0.4 c -0.6,0 -1.2,0.1 -1.9,0.1 -0.6,0 -1.2,0 -1.7,-0.1 v 0.5 c 0.8,-0.1 1,-0.1 1,0.5 m -11.3,-0.7 v 0 h -2 c 0.4,-1 0.8,-2.1 1.1,-3.2 v 0 c 0.4,1.4 0.6,2.2 0.9,3.2 m -5.4,3.6 v 0 0.4 c 0.5,0 1,-0.1 1.5,-0.1 0.5,0 1,0 1.4,0.1 v -0.4 c -0.5,0 -0.7,-0.2 -0.7,-0.4 0,-0.1 0,-0.3 0.1,-0.5 l 0.6,-1.6 h 2.7 l 0.4,1.4 c 0.1,0.2 0.1,0.5 0.1,0.7 0,0.3 -0.2,0.4 -0.7,0.5 v 0.4 c 0.6,0 1.2,-0.1 1.8,-0.1 0.6,0 1.2,0 1.8,0.1 v -0.4 c -0.4,-0.1 -0.6,-0.3 -0.8,-0.9 l -2.6,-8 c -0.4,0 -0.9,0.1 -1.3,0.1 -0.4,0 -0.9,0 -1.3,-0.1 v 0.4 c 0.4,0 0.5,0.2 0.5,0.4 0,0.1 -0.1,0.3 -0.2,0.5 l -2.7,6.9 c 0,0.3 -0.2,0.5 -0.6,0.6 m -8.6,-7.9 v 0 7.3 c 0,0.4 -0.2,0.6 -0.6,0.6 v 0.4 h 7.4 c 0,-0.8 0,-1.5 0.2,-2.7 H 46 c -0.2,1.2 -0.5,1.4 -1.2,1.4 h -3.2 v -2.9 h 1.9 c 0.6,0 0.7,0.2 0.8,0.7 h 0.4 c 0,-0.3 -0.1,-1 -0.1,-1.3 0,-0.4 0,-1 0.1,-1.3 h -0.4 c -0.1,0.5 -0.2,0.7 -0.8,0.7 h -1.9 v -2.7 h 3 c 0.8,0 1,0.3 1.1,1 h 0.4 C 46,101.9 46,101.3 46,100.5 h -7.1 v 0.4 c 0.5,0.1 0.6,0.3 0.6,0.6 m -8.9,0 v 0 7.3 c 0,0.4 -0.2,0.6 -0.6,0.6 v 0.4 h 7 c 0,-0.9 0.2,-1.8 0.3,-2.7 h -0.5 c -0.2,1.1 -0.6,1.5 -1.5,1.5 h -2.6 v -6.9 c 0,-0.4 0.1,-0.7 0.8,-0.8 v -0.4 c -0.4,0 -1.3,0.1 -1.8,0.1 -0.5,0 -1.1,0 -1.7,-0.1 v 0.4 c 0.4,0 0.6,0.2 0.6,0.6 M 11,94.3 v 0 L 11.2,92 c -1.1,0.9 -2.7,1.5 -3.8,1.5 -2.6,0 -4.5,-2.6 -4.5,-4.9 0,-3 1.8,-4.8 4,-4.8 1.7,0 2.9,0.9 3.2,2.6 h 0.5 C 10.5,85.1 10.4,83.8 10.4,82.4 9.9,82.2 8.8,81.9 7.1,81.9 2.4,81.9 0,85.3 0,88.8 c 0,3.4 2.4,6.8 6.8,6.8 1.1,0 2.9,-0.4 4.2,-1.3 m 32,-8.4 v 0 l -0.4,7.6 c 0,0.8 -0.3,0.9 -1,1 V 95 c 0.6,-0.1 1.2,-0.1 1.9,-0.1 0.7,0 1.4,0.1 2.1,0.1 v -0.5 c -1.1,-0.1 -1.2,-0.3 -1.2,-1.2 0,-0.5 0,-1 0.1,-1.9 l 0.1,-5.3 v 0 l 3.5,9 h 1.5 l 3,-8.9 v 0 l 0.4,5.4 c 0.1,0.6 0.1,1.4 0.1,1.9 0,0.8 -0.2,1 -1.1,1.1 v 0.5 C 52.7,95 53.5,95 54.3,95 c 0.8,0 1.6,0.1 2.4,0.1 V 94.6 C 56.3,94.5 55.8,94.5 55.8,94 l -0.6,-7.8 c -0.1,-0.6 -0.1,-1.4 -0.1,-1.9 0,-0.5 0.1,-0.7 0.7,-0.7 V 83 c -0.6,0.1 -1.3,0.1 -1.9,0.1 C 53.3,83.1 52.6,83 52,83 L 49.2,91.4 46.1,83 c -0.7,0.1 -1.3,0.1 -2,0.1 -0.7,0 -1.3,-0.1 -1.9,-0.1 v 0.5 c 0.7,0.1 0.8,0.2 0.8,0.7 0.1,0.7 0,1.2 0,1.7 m -15.5,9 v 0 -0.5 C 28,94.3 28.3,94 28.4,93.6 l 3.6,-9 c 0.1,-0.3 0.2,-0.5 0.2,-0.7 0,-0.2 -0.2,-0.5 -0.7,-0.5 V 83 c 0.6,0.1 1.1,0.1 1.7,0.1 0.6,0 1.1,-0.1 1.7,-0.1 l 3.3,10.3 c 0.3,0.8 0.5,1 1.1,1.2 V 95 C 38.5,94.9 37.8,94.9 37,94.9 36.2,94.9 35.4,95 34.7,95 v -0.5 c 0.7,-0.1 0.9,-0.3 0.9,-0.7 0,-0.3 -0.1,-0.7 -0.2,-0.9 l -0.6,-1.8 h -3.5 l -0.8,2.1 c -0.1,0.3 -0.1,0.5 -0.1,0.6 0,0.3 0.3,0.5 0.9,0.6 v 0.5 c -0.6,-0.1 -1.3,-0.1 -1.9,-0.1 -0.7,0 -1.3,0.1 -1.9,0.1 m 4.3,-5.2 v 0 h 2.6 C 34,88.5 33.7,87.4 33.3,85.5 v 0 c -0.4,1.5 -1,3 -1.5,4.2 M 14.5,84.2 v 0 9.5 c 0,0.5 -0.2,0.7 -0.8,0.8 V 95 c 0.8,-0.1 1.5,-0.1 2.2,-0.1 0.7,0 1.4,0.1 2.2,0.1 v -0.5 c -0.6,0 -0.8,-0.3 -0.8,-0.8 v -4.2 h 4.4 v 4.2 c 0,0.5 -0.2,0.7 -0.8,0.8 V 95 c 0.8,-0.1 1.5,-0.1 2.2,-0.1 0.7,0 1.4,0.1 2.2,0.1 v -0.5 c -0.6,0 -0.8,-0.3 -0.8,-0.8 v -9.5 c 0,-0.5 0.2,-0.7 0.8,-0.8 V 83 c -0.8,0.1 -1.5,0.1 -2.2,0.1 -0.7,0 -1.4,-0.1 -2.2,-0.1 v 0.5 c 0.6,0 0.8,0.3 0.8,0.8 v 3.6 h -4.4 v -3.6 c 0,-0.5 0.2,-0.7 0.8,-0.8 V 83 c -0.8,0.1 -1.5,0.1 -2.2,0.1 -0.7,0 -1.4,-0.1 -2.2,-0.1 v 0.5 c 0.6,0 0.8,0.2 0.8,0.7 m 94.4,6.6 v 0 h -0.5 c 0.1,1.1 0.1,2.4 0.1,3.8 1.3,0.4 2.7,0.7 4.1,0.7 3,0 5.5,-1.3 5.5,-3.8 0,-2.4 -1.8,-3.1 -3.6,-3.7 l -2,-0.6 c -0.8,-0.2 -1.7,-0.5 -1.7,-1.6 0,-1.3 1.6,-1.6 2.5,-1.6 1.7,0 3.1,0.8 3.5,2.5 h 0.5 c -0.1,-1 -0.1,-2.1 -0.1,-3.5 -1.1,-0.4 -2.3,-0.6 -3.5,-0.6 -2.8,0 -5.6,0.9 -5.6,3.8 0,2.2 1.9,3 3.8,3.6 l 1.3,0.4 c 0.9,0.3 2,0.6 2,1.7 0,1.4 -1.6,1.7 -2.7,1.7 -1.9,0.2 -3.2,-0.8 -3.6,-2.8 M 94.8,84.2 v 0 9.5 c 0,0.5 -0.2,0.7 -0.8,0.8 V 95 c 0.6,-0.1 1.2,-0.1 1.8,-0.1 0.6,0 1.1,0.1 1.7,0.1 v -0.5 c -0.5,0 -1.1,-0.1 -1.1,-1 v -7.9 0 l 6,9.4 h 1.9 V 84.2 c 0,-0.5 0.2,-0.7 0.8,-0.8 V 83 c -0.6,0.1 -1.2,0.1 -1.8,0.1 -0.6,0 -1.1,-0.1 -1.7,-0.1 v 0.5 c 0.5,0 1.1,0.1 1.1,1 v 6.6 0 l -5,-8.1 c -0.6,0.1 -1.1,0.1 -1.6,0.1 -0.7,0 -1.4,-0.1 -2.2,-0.1 v 0.5 c 0.7,0 0.9,0.2 0.9,0.7 m -21.9,0 v 0 9.5 c 0,0.5 -0.2,0.7 -0.8,0.8 V 95 c 0.8,-0.1 1.5,-0.1 2.2,-0.1 0.7,0 1.4,0.1 2.2,0.1 v -0.5 c -0.6,0 -0.8,-0.3 -0.8,-0.8 v -9.5 c 0,-0.5 0.2,-0.7 0.8,-0.8 V 83 c -0.8,0.1 -1.5,0.1 -2.2,0.1 -0.7,0 -1.4,-0.1 -2.2,-0.1 v 0.5 c 0.6,0 0.8,0.2 0.8,0.7 M 63,93.4 v 0 -8.6 l 1.1,-0.1 c 1.6,0 2.6,0.6 2.6,2.2 0,1.5 -0.7,2.6 -2.6,2.6 -0.2,0 -0.5,-0.1 -0.6,-0.1 -0.2,0 -0.3,0 -0.3,0.2 0,0.4 1.3,0.8 2.2,0.8 2.3,0 4,-1.4 4,-3.6 0,-2.1 -1.2,-3.7 -4.6,-3.7 h -5.4 v 0.5 c 0.6,0 0.8,0.3 0.8,0.8 v 8.9 c 0,0.9 -0.1,1.2 -0.8,1.3 v 0.5 C 60.2,95 60.9,95 61.6,95 c 0.7,0 1.4,0.1 2.5,0.1 V 94.6 C 63.1,94.3 63,94.1 63,93.4 m 21.9,-8.8 v 0 c 2.7,0 3.5,3.1 3.5,5.2 0,2 -1.1,3.6 -2.9,3.6 -2.6,0 -3.5,-3.1 -3.5,-5.2 0,-1.5 0.7,-3.6 2.9,-3.6 m 0.2,10.5 v 0 c 3.3,0 6,-2.3 6,-6.1 0,-3.2 -2.2,-6.2 -5.9,-6.2 -3.3,0 -5.9,2.5 -5.9,5.9 0,3.4 2.2,6.4 5.8,6.4"
       class="st0"
       inkscape:connector-curvature="0"
       style="fill:#0e2050"
       sodipodi:nodetypes="cccsccccccsccccccccccccccccccccccccccccccccccccccccccccccccccccccccccccccccscccccsccsccsccsccsccccccccssssccsccsssssccscccccsssscccssscccsccsccccccccccccsccsccccsccsccccsccscccccscccccsccsccsccsccsccccccccscccccscsccsccccccssscccsssccccccsccsccccccccsccsccccsccscccscccccccccsccsccccsccsccccsccscccccccccsccsccsccsccsccssccsccsccsccscccccccssccsscccssccsccccsccsccsccccsccsccscccscccccsccsccssccscccccccsssssssccssccscccccssscccsssc"
       transform="matrix(0.21906164,0,0,0.21906164,-140.85703,325.61128)" />
  </g>
  <style
     id="style10"
     type="text/css">
	.st0{clip-path:url(#SVGID_2_);fill:#0E2050;}
</style>
</svg>
