<svg width="1em" height="1em" viewBox="0 0 20 20" xmlns="http://www.w3.org/2000/svg" xmlns:xlink="http://www.w3.org/1999/xlink" fill="currentColor" overflow="hidden"><path d="M6.646 13.646C6.84101 13.4505 7.1576 13.4501 7.35311 13.6451 7.3534 13.6454 7.3537 13.6457 7.354 13.646L10 16.293 12.646 13.646C12.8415 13.4505 13.1585 13.4505 13.354 13.646 13.5495 13.8415 13.5495 14.1585 13.354 14.354L10.354 17.354C10.159 17.5495 9.8424 17.5499 9.64689 17.3549 9.6466 17.3546 9.6463 17.3543 9.646 17.354L6.646 14.354C6.45049 14.159 6.45009 13.8424 6.64511 13.6469 6.6454 13.6466 6.6457 13.6463 6.646 13.646Z" fill="#FFFFFF" fill-rule="evenodd" clip-rule="evenodd"/><path d="M10 6.5C10.2761 6.5 10.5 6.72386 10.5 7L10.5 16C10.5 16.2761 10.2761 16.5 10 16.5 9.72386 16.5 9.5 16.2761 9.5 16L9.5 7C9.5 6.72386 9.72386 6.5 10 6.5Z" fill="#FFFFFF" fill-rule="evenodd" clip-rule="evenodd"/><path d="M4.5 4C4.5 3.17157 5.17157 2.5 6 2.5L14 2.5C14.8284 2.5 15.5 3.17157 15.5 4L15.5 11C15.5 11.8284 14.8284 12.5 14 12.5L12.5 12.5C12.2239 12.5 12 12.2761 12 12 12 11.7239 12.2239 11.5 12.5 11.5L14 11.5C14.2761 11.5 14.5 11.2761 14.5 11L14.5 4C14.5 3.72386 14.2761 3.5 14 3.5L6 3.5C5.72386 3.5 5.5 3.72386 5.5 4L5.5 11C5.5 11.2761 5.72386 11.5 6 11.5L7.5 11.5C7.77614 11.5 8 11.7239 8 12 8 12.2761 7.77614 12.5 7.5 12.5L6 12.5C5.17157 12.5 4.5 11.8284 4.5 11L4.5 4Z" fill="#FFFFFF" fill-rule="evenodd" clip-rule="evenodd"/></svg>